<svg width="60" height="60" fill="#000000" version="1.1" viewBox="0 0 60 60" xmlns="http://www.w3.org/2000/svg">
 <path d="m16.816 0c-9.2734 0-16.816 7.543-16.816 16.816v26.367c0 9.2734 7.543 16.816 16.816 16.816h26.367c9.2734 0 16.816-7.543 16.816-16.816v-26.367c0-9.2734-7.543-16.816-16.816-16.816zm0 2h26.367c8.1914 0 14.816 6.625 14.816 14.816v26.367c0 8.1914-6.625 14.816-14.816 14.816h-26.367c-8.1914 0-14.816-6.625-14.816-14.816v-26.367c0-8.1914 6.625-14.816 14.816-14.816zm31.184 8.5c-1.3789 0-2.5 1.1211-2.5 2.5s1.1211 2.5 2.5 2.5 2.5-1.1211 2.5-2.5-1.1211-2.5-2.5-2.5zm-18 2.5c-9.3789 0-17 7.6211-17 17s7.6211 17 17 17 17-7.6211 17-17-7.6211-17-17-17zm0 2c8.2969 0 15 6.7031 15 15s-6.7031 15-15 15-15-6.7031-15-15 6.7031-15 15-15zm0 3c-0.55078 0-1 0.44922-1 1s0.44922 1 1 1 1-0.44922 1-1-0.44922-1-1-1zm-4.2031 0.83594c-0.13281 0-0.26562 0.02344-0.39062 0.07422-0.50781 0.21484-0.75 0.79688-0.53906 1.3086 0.21094 0.51172 0.79688 0.75391 1.3047 0.54297 0.51172-0.21484 0.75391-0.79688 0.54297-1.3086-0.15234-0.37109-0.51562-0.61328-0.91797-0.61719zm8.4336 0c-0.41406-0.0078-0.78906 0.23438-0.94531 0.61719-0.21094 0.51172 0.03125 1.0938 0.54297 1.3086 0.50781 0.21094 1.0938-0.03125 1.3047-0.54297 0.21094-0.51172-0.03125-1.0938-0.53906-1.3086-0.11719-0.04687-0.23828-0.07031-0.36328-0.07422zm-11.996 2.3867c-0.26953-0.0039-0.52734 0.10156-0.71875 0.29297-0.39062 0.39062-0.39062 1.0234 0 1.4141s1.0234 0.39062 1.4141 0 0.39062-1.0234 0-1.4141c-0.18359-0.18359-0.43359-0.28906-0.69531-0.29297zm15.559 0c-0.27344-0.0039-0.53125 0.10156-0.72266 0.29297-0.39062 0.39062-0.39062 1.0234 0 1.4141s1.0234 0.39062 1.4141 0 0.39062-1.0234 0-1.4141c-0.18359-0.18359-0.43359-0.28906-0.69141-0.29297zm2.3789 3.5664c-0.13672 0-0.26953 0.02344-0.39062 0.07422-0.51172 0.21484-0.75391 0.79688-0.54297 1.3086 0.21094 0.51172 0.79688 0.75391 1.3086 0.54297 0.50781-0.21484 0.75-0.79688 0.53906-1.3086-0.15234-0.37109-0.51562-0.61328-0.91406-0.61719zm-20.312 0.0039c-0.41406-0.01172-0.78906 0.23438-0.94531 0.61328-0.21094 0.51172 0.03125 1.0977 0.53906 1.3086 0.24609 0.10156 0.52344 0.10156 0.76953 0 0.24219-0.10156 0.4375-0.29688 0.53906-0.54297 0.10156-0.24609 0.10156-0.51953 0-0.76562-0.10156-0.24609-0.29688-0.44141-0.54297-0.54297-0.11328-0.04297-0.23438-0.07031-0.35938-0.07031zm-0.85938 4.207c-0.55078 0-1 0.44922-1 1s0.44922 1 1 1 1-0.44922 1-1-0.44922-1-1-1zm22 0c-0.55078 0-1 0.44922-1 1s0.44922 1 1 1 1-0.44922 1-1-0.44922-1-1-1zm-21.156 4.207c-0.13281 0-0.26562 0.02734-0.39062 0.07813-0.50781 0.21094-0.75 0.79688-0.53906 1.3086 0.21094 0.50781 0.79688 0.75 1.3047 0.53906 0.51172-0.21094 0.75391-0.79688 0.54297-1.3047-0.15234-0.37109-0.51562-0.61719-0.91797-0.62109zm20.344 0c-0.41406-0.0078-0.78906 0.23828-0.94922 0.61719-0.21094 0.51172 0.03125 1.0938 0.54297 1.3047 0.51172 0.21484 1.0938-0.02734 1.3086-0.53906 0.21094-0.51172-0.03125-1.0938-0.54297-1.3086-0.11328-0.04687-0.23828-0.07031-0.35938-0.07422zm-17.953 3.5703c-0.26953-0.0039-0.53125 0.10156-0.71875 0.29297-0.39062 0.39062-0.39062 1.0234 0 1.4141 0.38672 0.39062 1.0234 0.39062 1.4102 0 0.39062-0.39062 0.39062-1.0234 0-1.4141-0.18359-0.18359-0.42969-0.28906-0.69141-0.29297zm15.559 0.0039c-0.27344-0.0078-0.53125 0.09766-0.72266 0.28906-0.1875 0.1875-0.29297 0.44141-0.29297 0.70703s0.10547 0.51953 0.29297 0.70703c0.39062 0.39062 1.0234 0.39062 1.4141 0 0.1875-0.1875 0.29297-0.44141 0.29297-0.70703s-0.10547-0.51953-0.29297-0.70703c-0.18359-0.18359-0.43359-0.28906-0.69141-0.28906zm-11.98 2.3789c-0.41406-0.0078-0.78906 0.23828-0.94531 0.62109-0.21094 0.50781 0.03125 1.0938 0.53906 1.3047 0.51172 0.21094 1.0977-0.03125 1.3086-0.53906 0.21094-0.51172-0.03125-1.0977-0.54297-1.3086-0.11328-0.04687-0.23438-0.07422-0.35938-0.07813zm8.4062 0c-0.13281 0-0.26562 0.02734-0.39062 0.07813-0.51172 0.21094-0.75391 0.79688-0.54297 1.3086 0.21484 0.50781 0.79688 0.75 1.3086 0.53906 0.51172-0.21094 0.75391-0.79688 0.54297-1.3047-0.15625-0.37109-0.51562-0.61719-0.91797-0.62109zm-4.2188 0.83984c-0.55078 0-1 0.44922-1 1s0.44922 1 1 1 1-0.44922 1-1-0.44922-1-1-1z"/>
</svg>
