<svg width="343.93" height="495.94" enable-background="new 0 0 512 512" version="1.1" viewBox="0 0 343.93 495.94" xmlns="http://www.w3.org/2000/svg">
 <path d="m167.5 0.049148c-27.224 0.72873-54.286 7.9456-78.129 21.136-27.138 14.936-50.174 37.268-65.822 64.012-14.357 24.389-22.525 52.393-23.44 80.685-0.87956 25.098 3.7284 50.395 13.605 73.495 4.0178 9.497 9.0085 18.554 14.531 27.254 45.8 73.848 91.656 147.66 137.48 221.49 1.1822 1.8296 2.2362 3.7521 3.4989 5.5233 2.6336 3.0703 8.0533 3.091 10.564-0.14516 2.3353-3.2848 4.1233-6.9153 6.294-10.306 44.925-75.021 89.897-150.01 134.73-225.09 9.9903-17.102 16.824-36.01 20.365-55.485 5.1019-28.066 3.1033-57.403-5.885-84.484-7.0035-21.262-18.255-41.099-32.86-58.061-16.754-19.522-37.904-35.259-61.463-45.603-19.658-8.6744-40.973-13.538-62.442-14.332-0.78046-0.17099-0.73722 0.33427-1.5375 0.1473 0.56777-0.32479-0.66838-0.18095-1.147-0.23484-2.7809-0.065999-5.5638-0.079922-8.3446-0.00669zm4.4648 13.736c13.125 0.0073 26.24 1.6889 38.957 4.9297 0.61291 0.16761 1.5465 0.41151 2.2824 0.60839 15.3 4.1488 29.98 10.596 43.35 19.116 11.78 7.5286 22.719 16.732 32.171 27.134 8.0175 8.7899 15.048 18.478 20.927 28.821 0.31555 0.55657 0.73004 1.2978 1.0696 1.922 12.059 21.922 18.65 46.785 19.278 71.785 0.0308 1.631 0.0619 3.477 0.0403 5.1933-0.0459 6.0979-0.4552 12.289-1.2347 18.404-0.22755 1.8334-0.52941 3.8097-0.81346 5.6022-1.8456 11.242-4.9135 22.28-9.1074 32.871-0.49013 1.2304-1.0876 2.6786-1.643 3.9823-3.4203 8.0102-7.5474 15.703-12.136 23.102-43.582 72.76-87.164 145.52-130.75 218.28-46.506-74.972-93.05-149.92-139.46-224.95-5.4831-9.5172-9.9646-19.61-13.356-30.056-6.1977-19.076-8.8197-39.521-7.381-59.608 0.21265-3.0124 0.52204-6.0173 0.90252-9.013 0.11372-0.82349 0.2601-1.935 0.39937-2.8687 1.9147-12.967 5.4665-25.686 10.511-37.784 0.68961-1.6291 1.4737-3.4493 2.2512-5.1296 5.3703-11.696 12.18-22.729 20.227-32.773 7.6847-9.5621 16.587-18.385 26.317-25.973 1.1375-0.8983 2.1361-1.6436 3.3114-2.5206 16.809-12.474 36.095-21.631 56.451-26.551 12.237-2.9921 24.835-4.4975 37.431-4.5191zm-1.0898 76.213c-20.14 0.22629-40.08 8.2339-54.761 22.028-14.255 13.272-23.667 31.727-25.647 51.135-2.0236 18.639 2.4802 37.969 12.812 53.644 10.56 16.223 27.006 28.585 45.646 33.907 18.594 5.3997 39.083 4.0515 56.759-3.8829 13.91-6.1949 25.91-16.475 34.363-29.122 7.4216-11.058 12.136-23.933 13.456-37.194 1.8102-17.364-1.9992-35.322-11.022-50.297-9.7933-16.466-25.445-29.435-43.597-35.657-8.9777-3.1277-18.502-4.6762-28.008-4.5596zm1.1426 13.787c1.9497-3e-3 3.7082 0.0807 5.6487 0.24091 17.464 1.5115 34.232 10.027 45.685 23.31 1.109 1.2838 2.2855 2.7882 3.3484 4.2138 0.43056 0.59143 0.94662 1.2992 1.2672 1.7767 8.3415 12.074 12.675 26.887 12.047 41.556-0.0206 0.37776-0.0638 1.1991-0.10007 1.7461-0.78963 11.174-4.3677 22.126-10.309 31.621-5.4223 8.7241-12.856 16.179-21.578 21.608-5.3473 3.3672-11.391 6.0075-17.327 7.711-10.666 3.0877-22.084 3.4119-32.933 1.0824-10.18-2.1622-19.88-6.639-28.028-13.127-0.3283-0.27424-0.95898-0.77082-1.3936-1.145-10.91-9.1451-18.925-21.725-22.464-35.525-0.15246-0.59826-0.37237-1.5181-0.53321-2.2422-0.73351-3.3801-1.2152-6.8149-1.4238-10.268-0.0754-1.1718-0.12492-2.5903-0.12765-3.8609-0.025-4.8663 0.47081-9.7349 1.4753-14.496 0.13284-0.59893 0.33162-1.5231 0.51294-2.2427 0.91207-3.7136 2.0912-7.211 3.6102-10.749 1.8172-4.2141 4.062-8.2436 6.6952-12.002 0.26502-0.35885 0.61185-0.86628 0.90402-1.2541 1.2104-1.6438 2.6459-3.4173 4.0939-5.0089 9.6195-10.752 22.651-18.471 36.787-21.456 0.6836-0.14514 1.6679-0.33878 2.4717-0.47529 3.8529-0.66833 7.7625-0.97204 11.671-1.013z"/>
</svg>
