<svg width="66" height="65.818" fill="#000000" version="1.1" xmlns="http://www.w3.org/2000/svg">
 <path d="m33 0c-18.213 0-33 14.787-33 33 0 16.534 12.19 30.208 28.068 32.594l1.1484 0.17188v-24.285h-7.918v-6.4121h7.918v-5.5957c0-4.4711 1.0791-7.5142 2.9414-9.4512s4.6004-2.8848 8.2754-2.8848c3.1479 0 4.5273 0.20132 5.5625 0.33594v5.4043h-4.252c-1.9506 0-3.4691 1.0417-4.2988 2.4902-0.82977 1.4486-1.1133 3.2476-1.1133 5.1035v4.5977h9.418l-0.99219 6.4121h-8.4238v24.338l1.1348-0.1543c16.104-2.185 28.531-15.968 28.531-32.664 0-18.213-14.787-33-33-33zm0 2c17.133 0 31 13.867 31 31 0 15.299-11.106 27.878-25.666 30.42v-2.9414a1 1 0 0 0 0.93359-0.99805 1 1 0 0 0-0.93359-0.99609v-15.004h8.1387l1.6094-10.412h-9.75v-2.5977c0-1.6381 0.28918-3.1344 0.84766-4.1094 0.55848-0.97494 1.2461-1.4844 2.5645-1.4844h6.252v-9.2148l-0.86524-0.11719c-0.91763-0.12414-2.9599-0.4082-6.6973-0.4082-4.0271 0-7.3961 1.0862-9.7168 3.5s-3.5 6.04-3.5 10.836v3.5957h-7.918v10.412h7.918v15.145a1 1 0 0 0-0.48438 0.85547 1 1 0 0 0 0.48438 0.85547v2.998c-14.338-2.7231-25.217-15.194-25.217-30.334 0-17.133 13.867-31 31-31zm0 3a1 1 0 0 0-1 1 1 1 0 0 0 1 1 1 1 0 0 0 1-1 1 1 0 0 0-1-1zm-5.2676 0.51953a1 1 0 0 0-1 1 1 1 0 0 0 1 1 1 1 0 0 0 1-1 1 1 0 0 0-1-1zm10.535 0a1 1 0 0 0-1 1 1 1 0 0 0 1 1 1 1 0 0 0 1-1 1 1 0 0 0-1-1zm-15.6 1.5352a1 1 0 0 0-1 1 1 1 0 0 0 1 1 1 1 0 0 0 1-1 1 1 0 0 0-1-1zm20.664 0a1 1 0 0 0-1 1 1 1 0 0 0 1 1 1 1 0 0 0 1-1 1 1 0 0 0-1-1zm-25.332 2.4961a1 1 0 0 0-1 1 1 1 0 0 0 1 1 1 1 0 0 0 1-1 1 1 0 0 0-1-1zm30 0a1 1 0 0 0-1 1 1 1 0 0 0 1 1 1 1 0 0 0 1-1 1 1 0 0 0-1-1zm-34.092 3.3574a1 1 0 0 0-1 1 1 1 0 0 0 1 1 1 1 0 0 0 1-1 1 1 0 0 0-1-1zm38.184 0a1 1 0 0 0-1 1 1 1 0 0 0 1 1 1 1 0 0 0 1-1 1 1 0 0 0-1-1zm-41.541 4.0918a1 1 0 0 0-1 1 1 1 0 0 0 1 1 1 1 0 0 0 1-1 1 1 0 0 0-1-1zm44.898 0a1 1 0 0 0-1 1 1 1 0 0 0 1 1 1 1 0 0 0 1-1 1 1 0 0 0-1-1zm-47.395 4.668a1 1 0 0 0-1 1 1 1 0 0 0 1 1 1 1 0 0 0 1-1 1 1 0 0 0-1-1zm49.891 0a1 1 0 0 0-1 1 1 1 0 0 0 1 1 1 1 0 0 0 1-1 1 1 0 0 0-1-1zm-51.426 5.0645a1 1 0 0 0-1 1 1 1 0 0 0 1 1 1 1 0 0 0 1-1 1 1 0 0 0-1-1zm52.961 0a1 1 0 0 0-1 1 1 1 0 0 0 1 1 1 1 0 0 0 1-1 1 1 0 0 0-1-1zm-53.48 5.2676a1 1 0 0 0-1 1 1 1 0 0 0 1 1 1 1 0 0 0 1-1 1 1 0 0 0-1-1zm54 0a1 1 0 0 0-1 1 1 1 0 0 0 1 1 1 1 0 0 0 1-1 1 1 0 0 0-1-1zm-53.48 5.2676a1 1 0 0 0-1 1 1 1 0 0 0 1 1 1 1 0 0 0 1-1 1 1 0 0 0-1-1zm52.961 0a1 1 0 0 0-1 1 1 1 0 0 0 1 1 1 1 0 0 0 1-1 1 1 0 0 0-1-1zm-51.426 5.0645a1 1 0 0 0-1 1 1 1 0 0 0 1 1 1 1 0 0 0 1-1 1 1 0 0 0-1-1zm49.891 0a1 1 0 0 0-1 1 1 1 0 0 0 1 1 1 1 0 0 0 1-1 1 1 0 0 0-1-1zm-47.395 4.668a1 1 0 0 0-1 1 1 1 0 0 0 1 1 1 1 0 0 0 1-1 1 1 0 0 0-1-1zm44.898 0a1 1 0 0 0-1 1 1 1 0 0 0 1 1 1 1 0 0 0 1-1 1 1 0 0 0-1-1zm-41.541 4.0918a1 1 0 0 0-1 1 1 1 0 0 0 1 1 1 1 0 0 0 1-1 1 1 0 0 0-1-1zm38.184 0a1 1 0 0 0-1 1 1 1 0 0 0 1 1 1 1 0 0 0 1-1 1 1 0 0 0-1-1zm-34.092 3.3574a1 1 0 0 0-1 1 1 1 0 0 0 1 1 1 1 0 0 0 1-1 1 1 0 0 0-1-1zm30 0a1 1 0 0 0-1 1 1 1 0 0 0 1 1 1 1 0 0 0 1-1 1 1 0 0 0-1-1zm-25.332 2.4961a1 1 0 0 0-1 1 1 1 0 0 0 1 1 1 1 0 0 0 1-1 1 1 0 0 0-1-1zm20.664 0a1 1 0 0 0-1 1 1 1 0 0 0 1 1 1 1 0 0 0 1-1 1 1 0 0 0-1-1z"/>
</svg>
