<svg width="70" height="54" fill="#000000" version="1.1" viewBox="0 0 70 54" xmlns="http://www.w3.org/2000/svg">
 <path d="m6.5 0c-3.5742 0-6.4922 2.9141-6.5 6.4844v0.0078 0.0078 41c0 3.5781 2.9219 6.5 6.5 6.5h57c3.5781 0 6.5-2.9219 6.5-6.5v-41-0.0078-0.0078c-0.007812-3.5703-2.9258-6.4844-6.5-6.4844zm0 2h57c0.94531 0 1.8203 0.28906 2.543 0.78125l-0.14844 0.26953 0.375 0.8125 0.875 0.1875 0.10547-0.04687c0.47266 0.71484 0.75 1.5664 0.75 2.4922v0.0039c-0.0039 1.6328-0.80078 3.1562-2.1406 4.0898l-30.859 21.504-30.859-21.504c-1.3398-0.93359-2.1367-2.457-2.1406-4.0898v-0.0039c0-0.96094 0.30469-1.8438 0.8125-2.5742l0.57031 0.082025 0.63281-0.62891-0.082031-0.57422c0.72656-0.5 1.6094-0.80078 2.5664-0.80078zm-0.46875 2.3945-0.63281 0.63672 0.12891 0.88672 0.25 0.24609 0.08203 0.05859 0.88672 0.125 0.63281-0.62891-0.12891-0.89062-0.25-0.25-0.07813-0.05469zm57.328 0.01172-0.31641 0.14453-0.08594 0.05859-0.42578 0.78516 0.375 0.81641 0.875 0.18359 0.32031-0.14453 0.08203-0.05859 0.42578-0.78516-0.375-0.8125zm-53.965 2.332-0.63281 0.63672 0.12891 0.88672 0.25 0.25 0.07813 0.05469 0.89062 0.12891 0.63281-0.63281-0.12891-0.89062-0.25-0.24609-0.08203-0.05859zm50.605 0.011718-0.32422 0.14453-0.08203 0.05859-0.42578 0.78516 0.375 0.81641 0.875 0.1875 0.32031-0.14844 0.08203-0.05859 0.42969-0.78516-0.375-0.8125zm-47.238 2.332-0.63672 0.63672 0.12891 0.88672 0.25 0.25 0.08203 0.05469 0.88672 0.12891 0.63281-0.63281-0.125-0.88672-0.25-0.25-0.08594-0.05469zm43.871 0.01172-0.32031 0.14453-0.08203 0.05859-0.42969 0.78516 0.375 0.81641 0.87891 0.1875 0.32031-0.14844 0.08203-0.05859 0.42969-0.78516-0.375-0.8125zm-54.633 2.2695c0.30469 0.31641 0.63281 0.60938 1 0.86719l3.9766 2.7695c-0.54297 0.015625-0.97656 0.45703-0.97656 1 0 0.55078 0.44922 1 1 1s1-0.44922 1-1c0-0.10938-0.01953-0.21875-0.05469-0.32422l27.055 18.855 27.055-18.855c-0.035157 0.10547-0.054688 0.21484-0.054688 0.32422 0 0.55078 0.44922 1 1 1s1-0.44922 1-1c0-0.54297-0.43359-0.98828-0.97656-1l3.9766-2.7695c0.36719-0.25781 0.69531-0.55078 1-0.86719v36.137c0 2.3281-1.7461 4.1992-4 4.4492-0.027344-0.53125-0.46875-0.94922-1-0.94922-0.55078 0-1 0.44922-1 1h-54c0-0.55078-0.44922-1-1-1-0.53125 0-0.97266 0.41797-1 0.94922-2.2539-0.25-4-2.1211-4-4.4492zm14.125 0.0625-0.63672 0.63672 0.12891 0.88672 0.25 0.25 0.08203 0.05469 0.88672 0.12891 0.63281-0.63281-0.125-0.88672-0.25-0.25-0.08203-0.05469zm37.145 0.01172-0.32031 0.14453-0.08203 0.05859-0.42969 0.78906 0.375 0.8125 0.87891 0.1875 0.32031-0.14844 0.08203-0.05859 0.42578-0.78516-0.375-0.8125zm-33.781 2.332-0.63281 0.63672 0.12891 0.88672 0.24609 0.25 0.08203 0.05469 0.88672 0.13281 0.63281-0.63672-0.12891-0.88672-0.24609-0.25-0.08203-0.05469zm30.418 0.01172-0.32031 0.14453-0.08203 0.05859-0.42578 0.78906 0.375 0.81641 0.875 0.18359 0.31641-0.14844 0.08594-0.05469 0.42578-0.78906-0.375-0.8125zm-27.055 2.3359-0.63281 0.63281 0.125 0.88672 0.25 0.25 0.08203 0.05469 0.88672 0.13281 0.63672-0.63672-0.13281-0.88672-0.24609-0.25-0.08203-0.05469zm23.691 0.0078-0.32031 0.14844-0.08203 0.05469-0.42578 0.78906 0.375 0.81641 0.875 0.1875 0.31641-0.15234 0.08203-0.05469 0.42969-0.78906-0.375-0.8125zm-20.328 2.3359-0.63672 0.63281 0.12891 0.88672 0.25 0.25 0.08594 0.05469 0.88281 0.13281 0.63672-0.63672-0.12891-0.88672-0.25-0.25-0.08203-0.05469zm16.965 0.0078-0.32031 0.14844-0.08203 0.05469-0.42969 0.78906 0.375 0.81641 0.875 0.1875 0.32422-0.15232 0.078125-0.054687 0.42969-0.78906-0.375-0.8125zm-36.18 0.53127c-0.55078 0-1 0.44922-1 1s0.44922 1 1 1 1-0.44922 1-1-0.44922-1-1-1zm56 0c-0.55078 0-1 0.44922-1 1s0.44922 1 1 1 1-0.44922 1-1-0.44922-1-1-1zm-33.422 1.8047-0.63281 0.63281 0.12891 0.89062 0.25 0.24609 0.08203 0.05469 0.88672 0.13281 0.62891-0.63672-0.125-0.88672-0.25-0.25-0.08203-0.05469zm10.234 0.0078-0.31641 0.14844-0.08594 0.05859-0.42578 0.78906 0.375 0.8125 0.875 0.1875 0.32422-0.14844 0.08203-0.05859 0.42578-0.78905-0.375-0.8125zm-32.812 2.1875c-0.55078 0-1 0.44922-1 1s0.44922 1 1 1 1-0.44922 1-1-0.44922-1-1-1zm56 0c-0.55078 0-1 0.44922-1 1s0.44922 1 1 1 1-0.44922 1-1-0.44922-1-1-1zm-30.059 0.14844-0.63281 0.63281 0.12891 0.89062 0.25 0.24609 0.07813 0.05859 0.89062 0.12891 0.63281-0.63672-0.12891-0.88672-0.25-0.24609-0.08203-0.05859zm3.5117 0.0078-0.32422 0.15234-0.08203 0.05469-0.42578 0.78906 0.375 0.8125 0.87891 0.1875 0.31641-0.14844 0.08594-0.05469 0.42578-0.78906-0.375-0.81641zm-29.453 3.8438c-0.55078 0-1 0.44922-1 1s0.44922 1 1 1 1-0.44922 1-1-0.44922-1-1-1zm56 0c-0.55078 0-1 0.44922-1 1s0.44922 1 1 1 1-0.44922 1-1-0.44922-1-1-1zm-56 4c-0.55078 0-1 0.44922-1 1s0.44922 1 1 1 1-0.44922 1-1-0.44922-1-1-1zm56 0c-0.55078 0-1 0.44922-1 1s0.44922 1 1 1 1-0.44922 1-1-0.44922-1-1-1zm-56 4c-0.55078 0-1 0.44922-1 1s0.44922 1 1 1 1-0.44922 1-1-0.44922-1-1-1zm56 0c-0.55078 0-1 0.44922-1 1s0.44922 1 1 1 1-0.44922 1-1-0.44922-1-1-1zm-56 4c-0.55078 0-1 0.44922-1 1s0.44922 1 1 1 1-0.44922 1-1-0.44922-1-1-1zm56 0c-0.55078 0-1 0.44922-1 1s0.44922 1 1 1 1-0.44922 1-1-0.44922-1-1-1zm-56 4c-0.55078 0-1 0.44922-1 1s0.44922 1 1 1 1-0.44922 1-1-0.44922-1-1-1zm56 0c-0.55078 0-1 0.44922-1 1s0.44922 1 1 1 1-0.44922 1-1-0.44922-1-1-1zm-56 4c-0.55078 0-1 0.44922-1 1s0.44922 1 1 1 1-0.44922 1-1-0.44922-1-1-1zm56 0c-0.55078 0-1 0.44922-1 1s0.44922 1 1 1 1-0.44922 1-1-0.44922-1-1-1z"/>
</svg>
