<svg width="397.37" height="397.35" enable-background="new 0 0 405.333 405.333" version="1.1" viewBox="0 0 397.37 397.35" xmlns="http://www.w3.org/2000/svg">
 <path d="m101.82 0.010929c-25.181 0.016366-50.363-0.04377-75.543 0.057632-10.069 0.54636-19.549 7.0488-23.677 16.251-2.0783 4.4859-2.8307 9.5013-2.5456 14.416 0.22922 33.444 5.0046 66.859 14.24 99.007 10.585 36.967 27.078 72.221 48.571 104.1 24.001 35.642 54.244 67.063 88.932 92.422 38.375 28.116 82.238 48.726 128.42 60.185 27.308 6.808 55.399 10.419 83.536 10.849 4.0367 3e-3 8.1469 0.30327 12.099-0.71188 8.0453-1.9083 15.12-7.5452 18.693-15.013 1.9315-3.9087 2.8566-8.2733 2.824-12.626-2e-3 -4.5492-0.013-9.0986-1e-3 -13.648-0.0116-20.758 0.0438-41.519-0.0633-62.276-0.59133-10.398-7.5712-20.122-17.24-23.999-4.1593-1.7475-8.7228-2.321-13.207-2.1534-4.0752-0.0372-8.0956-0.1781-12.194-0.42904-7.9727-0.48346-16.019-1.3869-23.958-2.6888-4.6874-0.76775-9.5174-1.7182-14.136-2.7608-4.7288-1.0833-9.4383-2.2986-14.042-3.6517-3.1304-0.88271-6.203-1.9578-9.3194-2.8815-8.4387-2.1455-18.023-0.27049-24.565 5.6174-2.9992 2.6828-6.3753 4.8955-9.5279 7.388-13.254 10.011-26.508 20.021-39.762 30.032-12.491-6.6032-24.653-13.853-36.23-21.959-2.6622-1.8702-5.4396-3.8893-8.0667-5.8844-5.3691-4.0661-10.567-8.3563-15.601-12.83-1.7569-1.57-3.6888-3.3572-5.3984-4.9727-9.4863-9.0283-18.223-18.836-26.174-29.24-8.6647-11.3-16.39-23.491-23.344-35.979-1.5854-2.8531-3.1444-5.7209-4.6719-8.6055 11.925-15.829 23.798-31.701 35.797-47.473 7.206-7.1442 10.024-18.372 6.964-28.059-1.2071-4.0466-2.5697-8.0466-3.6262-12.138-1.5767-5.7652-2.9192-11.591-4.0373-17.417-1.2022-6.2542-2.1606-12.707-2.8416-18.925-0.85284-7.8225-1.3264-15.689-1.4248-23.516-5e-3 -2.8511 0.042-5.733-0.64616-8.5225-1.965-8.9117-8.508-16.719-17.056-19.994-3.5406-1.4022-7.3666-2.0806-11.174-1.9737zm-12.951 13.334c5.148 0.01939 10.3-0.02569 15.445 0.08537 6.6794 0.65222 12.534 6.4616 12.961 13.21 0.23829 3.1637 0.026 6.3415 0.23777 9.5077 0.70352 22.906 4.5694 45.717 11.499 67.562 0.75667 2.4084 1.6842 4.8545 1.465 7.427-0.16161 3.8264-1.9212 7.4308-4.4372 10.265-2.8708 3.4611-5.4561 7.1461-8.2011 10.706-10.51 13.951-21.097 27.861-31.544 41.864-1.4888 2.3826-1.0219 5.5223 0.4886 7.7752 11.775 22.942 25.755 44.882 42.897 64.206 15.559 17.575 33.642 32.848 53.287 45.666 11.205 7.3411 22.843 14.032 34.823 20.021 2.5954 1.0119 5.5397-0.0409 7.4836-1.8825 17.161-13.02 34.35-26.004 51.474-39.07 4.1347-3.7565 10.463-4.6826 15.586-2.5506 23.165 7.5207 47.442 11.53 71.786 12.037 3.6669 0.14332 7.5288-0.37136 10.969 1.2127 4.8305 2.0745 8.5141 6.8337 8.8545 12.14 0.2456 3.2097 1e-3 6.431 0.0928 9.6459-5e-3 23.193 0.0104 46.394-8e-3 69.581-0.94966 0.95269-0.98086 2.4128-1.7186 3.5077-2.6149 4.8848-8.1449 8.1137-13.709 7.7308-6.2924-8e-3 -12.477-0.17357-18.752-0.51586-10.123-0.54162-20.384-1.5471-30.49-2.9753-4.1281-0.58963-8.2408-1.238-12.39-1.9791-6.0771-1.0772-12.145-2.3211-18.264-3.7409-7.8956-1.8338-15.802-3.9562-23.6-6.351-7.915-2.419-15.809-5.1588-23.586-8.155-9.5504-3.6904-19.045-7.8452-28.304-12.379-1.3064-0.65774-2.9013-1.4416-4.2172-2.1064-15.364-7.7892-30.161-16.696-44.248-26.61-1.3931-0.99753-2.9706-2.1049-4.4187-3.1694-7.8908-5.7356-15.537-11.806-22.933-18.166-17.059-14.686-32.866-31.118-46.903-48.809-4.7914-6.0212-9.3752-12.207-13.771-18.523-1.2012-1.7455-2.5173-3.6515-3.7279-5.4822-1.0581-1.564-2.1318-3.2503-3.151-4.7951-11.535-17.918-21.499-36.936-29.664-56.689-7.0874-17.19-12.903-35.11-17.209-53.275-4.275-17.955-7.1055-36.249-8.5355-54.649-0.31667-4.1059-0.5707-8.3688-0.74599-12.542-0.2052-5.2201-0.34841-10.51-0.29698-15.783 0.18382-4.447 2.5376-8.7191 6.1983-11.249 2.7541-1.9721 6.1908-2.9113 9.5653-2.6811 19.907-0.02534 39.816-0.01617 59.709-0.02105z" style="-inkscape-stroke:none"/>
</svg>
